<?xml version="1.0" standalone="no"?>
<!DOCTYPE svg PUBLIC "-//W3C//DTD SVG 20010904//EN"
 "http://www.w3.org/TR/2001/REC-SVG-20010904/DTD/svg10.dtd">
<svg version="1.0" xmlns="http://www.w3.org/2000/svg"
 width="100.000000pt" height="100.000000pt" viewBox="0 0 100.000000 100.000000"
 preserveAspectRatio="xMidYMid meet">
<metadata>
Created by potrace 1.11, written by Peter Selinger 2001-2013
</metadata>
<g transform="translate(0.000000,100.000000) scale(0.100000,-0.100000)"
fill="#000000" stroke="none">
<path d="M387 944 c-167 -44 -298 -180 -336 -349 -42 -186 50 -393 217 -491
132 -78 318 -81 454 -7 53 29 137 110 170 163 83 137 86 335 6 471 -34 58
-109 133 -166 166 -94 56 -239 75 -345 47z m178 -280 c64 -30 73 -126 16 -174
l-30 -26 40 -73 40 -72 -28 3 c-23 2 -34 14 -63 70 -36 69 -47 77 -102 70 -25
-4 -27 -7 -26 -56 1 -81 -1 -86 -22 -86 -19 0 -20 7 -20 180 l0 180 81 0 c53
0 92 -5 114 -16z"/>
<path d="M414 573 l1 -68 58 -1 c71 -2 98 16 99 65 2 50 -29 71 -101 71 l-57
0 0 -67z"/>
</g>
</svg>
